<?xml version="1.0" standalone="no"?>
<!DOCTYPE svg PUBLIC "-//W3C//DTD SVG 20010904//EN"
 "http://www.w3.org/TR/2001/REC-SVG-20010904/DTD/svg10.dtd">
<svg version="1.0" xmlns="http://www.w3.org/2000/svg"
 width="60.000000pt" height="60.000000pt" viewBox="0 0 60.000000 60.000000"
 preserveAspectRatio="xMidYMid meet">

<g transform="translate(0.000000,60.000000) scale(0.100000,-0.100000)"
fill="#000000" stroke="none">
<path d="M0 300 l0 -300 112 0 112 0 -55 27 c-53 27 -54 29 -57 74 -3 41 1 50
24 68 32 26 114 51 164 51 49 0 132 -25 164 -51 21 -17 26 -29 26 -64 0 -49
-16 -65 -88 -91 -35 -12 -30 -13 81 -14 l117 0 0 300 0 300 -300 0 -300 0 0
-300z m368 124 c32 -36 30 -93 -4 -128 -57 -57 -154 -17 -154 63 0 90 99 132
158 65z"/>
</g>
</svg>
